<svg width="128" height="128" viewBox="0 0 128 128" fill="none" xmlns="http://www.w3.org/2000/svg">
  <rect width="128" height="128" rx="30" fill="#111111"/>
  <rect x="8" y="8" width="112" height="112" rx="25" fill="#181818" stroke="#303030" stroke-width="1.5"/>
  <path d="M34 82V42C34 39.7909 35.7909 38 38 38H47.75C49.1838 38 50.508 38.7677 51.2209 40.0117L64 62.3125L76.7791 40.0117C77.492 38.7677 78.8162 38 80.25 38H90C92.2091 38 94 39.7909 94 42V82C94 84.2091 92.2091 86 90 86H82C79.7909 86 78 84.2091 78 82V59.75L68.3795 76.2972C66.4275 79.6549 61.5725 79.6549 59.6205 76.2972L50 59.75V82C50 84.2091 48.2091 86 46 86H38C35.7909 86 34 84.2091 34 82Z" fill="#F5F5F5"/>
  <path d="M42 48H47.6L64 76L80.4 48H86V80H80V58.45L68.1 78.75C66.2546 81.8993 61.7454 81.8993 59.9 78.75L48 58.45V80H42V48Z" fill="#8C8C8C"/>
  <path d="M31 96H97" stroke="#8C8C8C" stroke-width="2.5" stroke-linecap="round"/>
</svg>
